<svg xmlns="http://www.w3.org/2000/svg" style="display: none;">
  <symbol id="add" viewBox="0 0 24 24">
<ns0:path xmlns:ns0="http://www.w3.org/2000/svg" d="M19 13h-6v6h-2v-6H5v-2h6V5h2v6h6v2z" fill="currentColor" />
  </symbol>
  <symbol id="add_circle" viewBox="0 0 24 24">
<ns0:path xmlns:ns0="http://www.w3.org/2000/svg" d="M13 7h-2v4H7v2h4v4h2v-4h4v-2h-4V7zm-1-5C6.48 2 2 6.48 2 12s4.48 10 10 10 10-4.48 10-10S17.52 2 12 2zm0 18c-4.41 0-8-3.59-8-8s3.59-8 8-8 8 3.59 8 8-3.59 8-8 8z" fill="currentColor" />
  </symbol>
  <symbol id="analytics" viewBox="0 0 24 24">
<ns0:path xmlns:ns0="http://www.w3.org/2000/svg" d="M19,3H5C3.9,3,3,3.9,3,5v14c0,1.1,0.9,2,2,2h14c1.1,0,2-0.9,2-2V5C21,3.9,20.1,3,19,3z M19,19H5V5h14V19z" fill="currentColor" />
<ns0:rect xmlns:ns0="http://www.w3.org/2000/svg" height="5" width="2" x="7" y="12" fill="currentColor" />
<ns0:rect xmlns:ns0="http://www.w3.org/2000/svg" height="10" width="2" x="15" y="7" fill="currentColor" />
<ns0:rect xmlns:ns0="http://www.w3.org/2000/svg" height="3" width="2" x="11" y="14" fill="currentColor" />
<ns0:rect xmlns:ns0="http://www.w3.org/2000/svg" height="2" width="2" x="11" y="10" fill="currentColor" />
  </symbol>
  <symbol id="arrow" viewBox="0 0 24 24">
<ns0:path xmlns:ns0="http://www.w3.org/2000/svg" d="M10 6L8.59 7.41 13.17 12l-4.58 4.59L10 18l6-6-6-6z" fill="currentColor" />
  </symbol>
  <symbol id="article" viewBox="0 0 24 24">
<ns0:path xmlns:ns0="http://www.w3.org/2000/svg" d="M19,5v14H5V5H19 M19,3H5C3.9,3,3,3.9,3,5v14c0,1.1,0.9,2,2,2h14c1.1,0,2-0.9,2-2V5C21,3.9,20.1,3,19,3L19,3z" fill="currentColor" />
<ns0:path xmlns:ns0="http://www.w3.org/2000/svg" d="M14,17H7v-2h7V17z M17,13H7v-2h10V13z M17,9H7V7h10V9z" fill="currentColor" />
  </symbol>
  <symbol id="aspect_ratio" viewBox="0 0 24 24">
<ns0:path xmlns:ns0="http://www.w3.org/2000/svg" d="M560-280h200v-200h-80v120H560v80ZM200-480h80v-120h120v-80H200v200Zm-40 320q-33 0-56.5-23.5T80-240v-480q0-33 23.5-56.5T160-800h640q33 0 56.5 23.5T880-720v480q0 33-23.5 56.5T800-160H160Zm0-80h640v-480H160v480Zm0 0v-480 480Z" transform="translate(-0.0,24.0) scale(0.025,0.025)" fill="currentColor" />
  </symbol>
  <symbol id="assessment" viewBox="0 0 24 24">
<ns0:path xmlns:ns0="http://www.w3.org/2000/svg" d="M19 3H5c-1.1 0-2 .9-2 2v14c0 1.1.9 2 2 2h14c1.1 0 2-.9 2-2V5c0-1.1-.9-2-2-2zm0 16H5V5h14v14zM7 10h2v7H7zm4-3h2v10h-2zm4 6h2v4h-2z" fill="currentColor" />
  </symbol>
  <symbol id="attach_money" viewBox="0 0 24 24">
<ns0:path xmlns:ns0="http://www.w3.org/2000/svg" d="M441-120v-86q-53-12-91.5-46T293-348l74-30q15 48 44.5 73t77.5 25q41 0 69.5-18.5T587-356q0-35-22-55.5T463-458q-86-27-118-64.5T313-614q0-65 42-101t86-41v-84h80v84q50 8 82.5 36.5T651-650l-74 32q-12-32-34-48t-60-16q-44 0-67 19.5T393-614q0 33 30 52t104 40q69 20 104.5 63.5T667-358q0 71-42 108t-104 46v84h-80Z" transform="translate(-0.0,24.0) scale(0.025,0.025)" fill="currentColor" />
  </symbol>
  <symbol id="brightness" viewBox="0 0 24 24">
<ns0:path xmlns:ns0="http://www.w3.org/2000/svg" d="M20 8.69V4h-4.69L12 .69 8.69 4H4v4.69L.69 12 4 15.31V20h4.69L12 23.31 15.31 20H20v-4.69L23.31 12 20 8.69zm-2 5.79V18h-3.52L12 20.48 9.52 18H6v-3.52L3.52 12 6 9.52V6h3.52L12 3.52 14.48 6H18v3.52L20.48 12 18 14.48zM12 6.5v11c3.03 0 5.5-2.47 5.5-5.5S15.03 6.5 12 6.5z" fill="currentColor" />
  </symbol>
  <symbol id="calendar" viewBox="0 0 24 24">
<ns0:path xmlns:ns0="http://www.w3.org/2000/svg" d="M19,4h-1V2h-2v2H8V2H6v2H5C3.89,4,3.01,4.9,3.01,6L3,20c0,1.1,0.89,2,2,2h14c1.1,0,2-0.9,2-2V6C21,4.9,20.1,4,19,4z M19,20 H5V10h14V20z M19,8H5V6h14V8z M9,14H7v-2h2V14z M13,14h-2v-2h2V14z M17,14h-2v-2h2V14z M9,18H7v-2h2V18z M13,18h-2v-2h2V18z M17,18 h-2v-2h2V18z" fill="currentColor" />
  </symbol>
  <symbol id="chat" viewBox="0 0 24 24">
<ns0:path xmlns:ns0="http://www.w3.org/2000/svg" d="M240-400h320v-80H240v80Zm0-120h480v-80H240v80Zm0-120h480v-80H240v80ZM80-80v-720q0-33 23.5-56.5T160-880h640q33 0 56.5 23.5T880-800v480q0 33-23.5 56.5T800-240H240L80-80Zm126-240h594v-480H160v525l46-45Zm-46 0v-480 480Z" transform="translate(-0.0,24.0) scale(0.025,0.025)" fill="currentColor" />
  </symbol>
  <symbol id="close" viewBox="0 0 24 24">
<ns0:path xmlns:ns0="http://www.w3.org/2000/svg" d="M19 6.41L17.59 5 12 10.59 6.41 5 5 6.41 10.59 12 5 17.59 6.41 19 12 13.41 17.59 19 19 17.59 13.41 12 19 6.41z" fill="currentColor" />
  </symbol>
  <symbol id="content_copy" viewBox="0 0 24 24">
<ns0:path xmlns:ns0="http://www.w3.org/2000/svg" d="M360-240q-33 0-56.5-23.5T280-320v-480q0-33 23.5-56.5T360-880h360q33 0 56.5 23.5T800-800v480q0 33-23.5 56.5T720-240H360Zm0-80h360v-480H360v480ZM200-80q-33 0-56.5-23.5T120-160v-560h80v560h440v80H200Zm160-240v-480 480Z" transform="translate(-0.0,24.0) scale(0.025,0.025)" fill="currentColor" />
  </symbol>
  <symbol id="credit_card" viewBox="0 0 24 24">
<ns0:path xmlns:ns0="http://www.w3.org/2000/svg" d="M880-720v480q0 33-23.5 56.5T800-160H160q-33 0-56.5-23.5T80-240v-480q0-33 23.5-56.5T160-800h640q33 0 56.5 23.5T880-720Zm-720 80h640v-80H160v80Zm0 160v240h640v-240H160Zm0 240v-480 480Z" transform="translate(-0.0,24.0) scale(0.025,0.025)" fill="currentColor" />
  </symbol>
  <symbol id="database" viewBox="0 0 24 24">
<ns0:path xmlns:ns0="http://www.w3.org/2000/svg" d="M480-120q-151 0-255.5-46.5T120-280v-400q0-66 105.5-113T480-840q149 0 254.5 47T840-680v400q0 67-104.5 113.5T480-120Zm0-479q89 0 179-25.5T760-679q-11-29-100.5-55T480-760q-91 0-178.5 25.5T200-679q14 30 101.5 55T480-599Zm0 199q42 0 81-4t74.5-11.5q35.5-7.5 67-18.5t57.5-25v-120q-26 14-57.5 25t-67 18.5Q600-528 561-524t-81 4q-42 0-82-4t-75.5-11.5Q287-543 256-554t-56-25v120q25 14 56 25t66.5 18.5Q358-408 398-404t82 4Zm0 200q46 0 93.5-7t87.5-18.5q40-11.5 67-26t32-29.5v-98q-26 14-57.5 25t-67 18.5Q600-328 561-324t-81 4q-42 0-82-4t-75.5-11.5Q287-343 256-354t-56-25v99q5 15 31.5 29t66.5 25.5q40 11.5 88 18.5t94 7Z" transform="translate(-0.0,24.0) scale(0.025,0.025)" fill="currentColor" />
  </symbol>
  <symbol id="delete" viewBox="0 0 24 24">
<ns0:path xmlns:ns0="http://www.w3.org/2000/svg" d="M6 19c0 1.1.9 2 2 2h8c1.1 0 2-.9 2-2V7H6v12zM19 4h-3.5l-1-1h-5l-1 1H5v2h14V4z" fill="currentColor" />
  </symbol>
  <symbol id="done" viewBox="0 0 24 24">
<ns0:path xmlns:ns0="http://www.w3.org/2000/svg" d="M9 16.2L4.8 12l-1.4 1.4L9 19 21 7l-1.4-1.4L9 16.2z" fill="currentColor" />
  </symbol>
  <symbol id="download" viewBox="0 0 24 24">
<ns0:path xmlns:ns0="http://www.w3.org/2000/svg" d="M480-320 280-520l56-58 104 104v-326h80v326l104-104 56 58-200 200ZM240-160q-33 0-56.5-23.5T160-240v-120h80v120h480v-120h80v120q0 33-23.5 56.5T720-160H240Z" transform="translate(-0.0,24.0) scale(0.025,0.025)" fill="currentColor" />
  </symbol>
  <symbol id="drag_handle" viewBox="0 0 24 24">
<ns0:path xmlns:ns0="http://www.w3.org/2000/svg" d="M20,9H4v2h16V9z M4,15h16v-2H4V15z" fill="currentColor" />
  </symbol>
  <symbol id="drag_indicator" viewBox="0 0 24 24">
<ns0:path xmlns:ns0="http://www.w3.org/2000/svg" d="M11 18c0 1.1-.9 2-2 2s-2-.9-2-2 .9-2 2-2 2 .9 2 2zm-2-8c-1.1 0-2 .9-2 2s.9 2 2 2 2-.9 2-2-.9-2-2-2zm0-6c-1.1 0-2 .9-2 2s.9 2 2 2 2-.9 2-2-.9-2-2-2zm6 4c1.1 0 2-.9 2-2s-.9-2-2-2-2 .9-2 2 .9 2 2 2zm0 2c-1.1 0-2 .9-2 2s.9 2 2 2 2-.9 2-2-.9-2-2-2zm0 6c-1.1 0-2 .9-2 2s.9 2 2 2 2-.9 2-2-.9-2-2-2z" fill="currentColor" />
  </symbol>
  <symbol id="edit" viewBox="0 0 24 24">
<ns0:path xmlns:ns0="http://www.w3.org/2000/svg" d="M14.06 9.02l.92.92L5.92 19H5v-.92l9.06-9.06M17.66 3c-.25 0-.51.1-.7.29l-1.83 1.83 3.75 3.75 1.83-1.83c.39-.39.39-1.02 0-1.41l-2.34-2.34c-.2-.2-.45-.29-.71-.29zm-3.6 3.19L3 17.25V21h3.75L17.81 9.94l-3.75-3.75z" fill="currentColor" />
  </symbol>
  <symbol id="edit_note" viewBox="0 0 24 24">
<ns0:path xmlns:ns0="http://www.w3.org/2000/svg" d="M3,10h11v2H3V10z M3,8h11V6H3V8z M3,16h7v-2H3V16z M18.01,12.87l0.71-0.71c0.39-0.39,1.02-0.39,1.41,0l0.71,0.71 c0.39,0.39,0.39,1.02,0,1.41l-0.71,0.71L18.01,12.87z M17.3,13.58l-5.3,5.3V21h2.12l5.3-5.3L17.3,13.58z" fill="currentColor" />
  </symbol>
  <symbol id="empty_dashboard" viewBox="0 0 24 24">
<ns0:path xmlns:ns0="http://www.w3.org/2000/svg" d="M240-240h220v-160H240v160Zm0-200h220v-280H240v280Zm260 200h220v-280H500v280Zm0-320h220v-160H500v160ZM200-120q-33 0-56.5-23.5T120-200v-560q0-33 23.5-56.5T200-840h560q33 0 56.5 23.5T840-760v80h80v80h-80v80h80v80h-80v80h80v80h-80v80q0 33-23.5 56.5T760-120H200Zm0-80h560v-560H200v560Zm0-560v560-560Z" transform="translate(-0.0,24.0) scale(0.025,0.025)" fill="currentColor" />
  </symbol>
  <symbol id="extension" viewBox="0 0 24 24">
<ns0:path xmlns:ns0="http://www.w3.org/2000/svg" d="M352-120H200q-33 0-56.5-23.5T120-200v-152q48 0 84-30.5t36-77.5q0-47-36-77.5T120-568v-152q0-33 23.5-56.5T200-800h160q0-42 29-71t71-29q42 0 71 29t29 71h160q33 0 56.5 23.5T800-720v160q42 0 71 29t29 71q0 42-29 71t-71 29v160q0 33-23.5 56.5T720-120H568q0-50-31.5-85T460-240q-45 0-76.5 35T352-120Zm-152-80h85q24-66 77-93t98-27q45 0 98 27t77 93h85v-240h80q8 0 14-6t6-14q0-8-6-14t-14-6h-80v-240H480v-80q0-8-6-14t-14-6q-8 0-14 6t-6 14v80H200v88q54 20 87 67t33 105q0 57-33 104t-87 68v88Zm260-260Z" transform="translate(-0.0,24.0) scale(0.025,0.025)" fill="currentColor" />
  </symbol>
  <symbol id="filter_list" viewBox="0 0 24 24">
<ns0:path xmlns:ns0="http://www.w3.org/2000/svg" d="M400-240v-80h160v80H400ZM240-440v-80h480v80H240ZM120-640v-80h720v80H120Z" transform="translate(-0.0,24.0) scale(0.025,0.025)" fill="currentColor" />
  </symbol>
  <symbol id="folder" viewBox="0 0 24 24">
<ns0:path xmlns:ns0="http://www.w3.org/2000/svg" d="M10 4H4c-1.1 0-1.99.9-1.99 2L2 18c0 1.1.9 2 2 2h16c1.1 0 2-.9 2-2V8c0-1.1-.9-2-2-2h-8l-2-2z" fill="currentColor" />
  </symbol>
  <symbol id="fullscreen" viewBox="0 0 24 24">
<ns0:path xmlns:ns0="http://www.w3.org/2000/svg" d="M7 14H5v5h5v-2H7v-3zm-2-4h2V7h3V5H5v5zm12 7h-3v2h5v-5h-2v3zM14 5v2h3v3h2V5h-5z" fill="currentColor" />
  </symbol>
  <symbol id="grid_on" viewBox="0 0 24 24">
<ns0:path xmlns:ns0="http://www.w3.org/2000/svg" d="M200-120q-33 0-56.5-23.5T120-200v-560q0-33 23.5-56.5T200-840h560q33 0 56.5 23.5T840-760v560q0 33-23.5 56.5T760-120H200Zm0-80h133v-133H200v133Zm213 0h134v-133H413v133Zm214 0h133v-133H627v133ZM200-413h133v-134H200v134Zm213 0h134v-134H413v134Zm214 0h133v-134H627v134ZM200-627h133v-133H200v133Zm213 0h134v-133H413v133Zm214 0h133v-133H627v133Z" transform="translate(-0.0,24.0) scale(0.025,0.025)" fill="currentColor" />
  </symbol>
  <symbol id="headphones" viewBox="0 0 24 24">
<ns0:path xmlns:ns0="http://www.w3.org/2000/svg" d="M360-120H200q-33 0-56.5-23.5T120-200v-280q0-75 28.5-140.5t77-114q48.5-48.5 114-77T480-840q75 0 140.5 28.5t114 77q48.5 48.5 77 114T840-480v280q0 33-23.5 56.5T760-120H600v-320h160v-40q0-117-81.5-198.5T480-760q-117 0-198.5 81.5T200-480v40h160v320Zm-80-240h-80v160h80v-160Zm400 0v160h80v-160h-80Zm-400 0h-80 80Zm400 0h80-80Z" transform="translate(-0.0,24.0) scale(0.025,0.025)" fill="currentColor" />
  </symbol>
  <symbol id="id_card" viewBox="0 0 24 24">
<ns0:path xmlns:ns0="http://www.w3.org/2000/svg" d="M560-440h200v-80H560v80Zm0-120h200v-80H560v80ZM200-320h320v-22q0-45-44-71.5T360-440q-72 0-116 26.5T200-342v22Zm160-160q33 0 56.5-23.5T440-560q0-33-23.5-56.5T360-640q-33 0-56.5 23.5T280-560q0 33 23.5 56.5T360-480ZM160-160q-33 0-56.5-23.5T80-240v-480q0-33 23.5-56.5T160-800h640q33 0 56.5 23.5T880-720v480q0 33-23.5 56.5T800-160H160Zm0-80h640v-480H160v480Zm0 0v-480 480Z" transform="translate(-0.0,24.0) scale(0.025,0.025)" fill="currentColor" />
  </symbol>
  <symbol id="image" viewBox="0 0 24 24">
<ns0:path xmlns:ns0="http://www.w3.org/2000/svg" d="M19 5v14H5V5h14m0-2H5c-1.1 0-2 .9-2 2v14c0 1.1.9 2 2 2h14c1.1 0 2-.9 2-2V5c0-1.1-.9-2-2-2zm-4.86 8.86l-3 3.87L9 13.14 6 17h12l-3.86-5.14z" fill="currentColor" />
  </symbol>
  <symbol id="info" viewBox="0 0 24 24">
<ns0:path xmlns:ns0="http://www.w3.org/2000/svg" d="M11 7h2v2h-2zm0 4h2v6h-2zm1-9C6.48 2 2 6.48 2 12s4.48 10 10 10 10-4.48 10-10S17.52 2 12 2zm0 18c-4.41 0-8-3.59-8-8s3.59-8 8-8 8 3.59 8 8-3.59 8-8 8z" fill="currentColor" />
  </symbol>
  <symbol id="install_desktop" viewBox="0 0 24 24">
<ns0:path xmlns:ns0="http://www.w3.org/2000/svg" d="M320-120v-80H160q-33 0-56.5-23.5T80-280v-480q0-33 23.5-56.5T160-840h320v80H160v480h640v-120h80v120q0 33-23.5 56.5T800-200H640v80H320Zm360-280L480-600l56-56 104 103v-287h80v287l104-103 56 56-200 200Z" transform="translate(-0.0,24.0) scale(0.025,0.025)" fill="currentColor" />
  </symbol>
  <symbol id="invert_colors" viewBox="0 0 24 24">
<ns0:path xmlns:ns0="http://www.w3.org/2000/svg" d="M12,4.81L12,19c-3.31,0-6-2.63-6-5.87c0-1.56,0.62-3.03,1.75-4.14L12,4.81 M12,2L6.35,7.56l0,0C4.9,8.99,4,10.96,4,13.13 C4,17.48,7.58,21,12,21c4.42,0,8-3.52,8-7.87c0-2.17-0.9-4.14-2.35-5.57l0,0L12,2z" fill="currentColor" />
  </symbol>
  <symbol id="key" viewBox="0 0 24 24">
<ns0:path xmlns:ns0="http://www.w3.org/2000/svg" d="M280-400q-33 0-56.5-23.5T200-480q0-33 23.5-56.5T280-560q33 0 56.5 23.5T360-480q0 33-23.5 56.5T280-400Zm0 160q-100 0-170-70T40-480q0-100 70-170t170-70q67 0 121.5 33t86.5 87h352l120 120-180 180-80-60-80 60-85-60h-47q-32 54-86.5 87T280-240Zm0-80q56 0 98.5-34t56.5-86h125l58 41 82-61 71 55 75-75-40-40H435q-14-52-56.5-86T280-640q-66 0-113 47t-47 113q0 66 47 113t113 47Z" transform="translate(-0.0,24.0) scale(0.025,0.025)" fill="currentColor" />
  </symbol>
  <symbol id="keyboard" viewBox="0 0 24 24">
<ns0:path xmlns:ns0="http://www.w3.org/2000/svg" d="M160-200q-33 0-56.5-23.5T80-280v-400q0-33 23.5-56.5T160-760h640q33 0 56.5 23.5T880-680v400q0 33-23.5 56.5T800-200H160Zm0-80h640v-400H160v400Zm160-40h320v-80H320v80ZM200-440h80v-80h-80v80Zm120 0h80v-80h-80v80Zm120 0h80v-80h-80v80Zm120 0h80v-80h-80v80Zm120 0h80v-80h-80v80ZM200-560h80v-80h-80v80Zm120 0h80v-80h-80v80Zm120 0h80v-80h-80v80Zm120 0h80v-80h-80v80Zm120 0h80v-80h-80v80ZM160-280v-400 400Z" transform="translate(-0.0,24.0) scale(0.025,0.025)" fill="currentColor" />
  </symbol>
  <symbol id="label" viewBox="0 0 24 24">
<ns0:path xmlns:ns0="http://www.w3.org/2000/svg" d="M17.63 5.84C17.27 5.33 16.67 5 16 5L5 5.01C3.9 5.01 3 5.9 3 7v10c0 1.1.9 1.99 2 1.99L16 19c.67 0 1.27-.33 1.63-.84L22 12l-4.37-6.16zM16 17H5V7h11l3.55 5L16 17z" fill="currentColor" />
  </symbol>
  <symbol id="layers" viewBox="0 0 24 24">
<ns0:path xmlns:ns0="http://www.w3.org/2000/svg" d="M11.99 18.54l-7.37-5.73L3 14.07l9 7 9-7-1.63-1.27zM12 16l7.36-5.73L21 9l-9-7-9 7 1.63 1.27L12 16zm0-11.47L17.74 9 12 13.47 6.26 9 12 4.53z" fill="currentColor" />
  </symbol>
  <symbol id="location_on" viewBox="0 0 24 24">
<ns0:path xmlns:ns0="http://www.w3.org/2000/svg" d="M480-480q33 0 56.5-23.5T560-560q0-33-23.5-56.5T480-640q-33 0-56.5 23.5T400-560q0 33 23.5 56.5T480-480Zm0 294q122-112 181-203.5T720-552q0-109-69.5-178.5T480-800q-101 0-170.5 69.5T240-552q0 71 59 162.5T480-186Zm0 106Q319-217 239.5-334.5T160-552q0-150 96.5-239T480-880q127 0 223.5 89T800-552q0 100-79.5 217.5T480-80Zm0-480Z" transform="translate(-0.0,24.0) scale(0.025,0.025)" fill="currentColor" />
  </symbol>
  <symbol id="lock" viewBox="0 0 24 24">
<ns0:path xmlns:ns0="http://www.w3.org/2000/svg" d="M240-80q-33 0-56.5-23.5T160-160v-400q0-33 23.5-56.5T240-640h40v-80q0-83 58.5-141.5T480-920q83 0 141.5 58.5T680-720v80h40q33 0 56.5 23.5T800-560v400q0 33-23.5 56.5T720-80H240Zm0-80h480v-400H240v400Zm240-120q33 0 56.5-23.5T560-360q0-33-23.5-56.5T480-440q-33 0-56.5 23.5T400-360q0 33 23.5 56.5T480-280ZM360-640h240v-80q0-50-35-85t-85-35q-50 0-85 35t-35 85v80ZM240-160v-400 400Z" transform="translate(-0.0,24.0) scale(0.025,0.025)" fill="currentColor" />
  </symbol>
  <symbol id="logout" viewBox="0 0 24 24">
<ns0:path xmlns:ns0="http://www.w3.org/2000/svg" d="M200-120q-33 0-56.5-23.5T120-200v-560q0-33 23.5-56.5T200-840h280v80H200v560h280v80H200Zm440-160-55-58 102-102H360v-80h327L585-622l55-58 200 200-200 200Z" transform="translate(-0.0,24.0) scale(0.025,0.025)" fill="currentColor" />
  </symbol>
  <symbol id="mail" viewBox="0 0 24 24">
<ns0:path xmlns:ns0="http://www.w3.org/2000/svg" d="M160-160q-33 0-56.5-23.5T80-240v-480q0-33 23.5-56.5T160-800h640q33 0 56.5 23.5T880-720v480q0 33-23.5 56.5T800-160H160Zm320-280L160-640v400h640v-400L480-440Zm0-80 320-200H160l320 200ZM160-640v-80 480-400Z" transform="translate(-0.0,24.0) scale(0.025,0.025)" fill="currentColor" />
  </symbol>
  <symbol id="media_folder" viewBox="0 0 24 24">
<ns0:path xmlns:ns0="http://www.w3.org/2000/svg" d="M2 6H0v5h.01L0 20c0 1.1.9 2 2 2h18v-2H2V6zm5 9h14l-3.5-4.5-2.5 3.01L11.5 9zM22 4h-8l-2-2H6c-1.1 0-1.99.9-1.99 2L4 16c0 1.1.9 2 2 2h16c1.1 0 2-.9 2-2V6c0-1.1-.9-2-2-2zm0 12H6V4h5.17l1.41 1.41.59.59H22v10z" fill="currentColor" />
  </symbol>
  <symbol id="menu" viewBox="0 0 24 24">
<ns0:path xmlns:ns0="http://www.w3.org/2000/svg" d="M3 18h18v-2H3v2zm0-5h18v-2H3v2zm0-7v2h18V6H3z" fill="currentColor" />
  </symbol>
  <symbol id="monitor" viewBox="0 0 24 24">
<ns0:path xmlns:ns0="http://www.w3.org/2000/svg" d="M240-120v-80l40-40H160q-33 0-56.5-23.5T80-320v-440q0-33 23.5-56.5T160-840h640q33 0 56.5 23.5T880-760v440q0 33-23.5 56.5T800-240H680l40 40v80H240Zm-80-200h640v-440H160v440Zm0 0v-440 440Z" transform="translate(-0.0,24.0) scale(0.025,0.025)" fill="currentColor" />
  </symbol>
  <symbol id="more" viewBox="0 0 24 24">
<ns0:path xmlns:ns0="http://www.w3.org/2000/svg" d="M12 8c1.1 0 2-.9 2-2s-.9-2-2-2-2 .9-2 2 .9 2 2 2zm0 2c-1.1 0-2 .9-2 2s.9 2 2 2 2-.9 2-2-.9-2-2-2zm0 6c-1.1 0-2 .9-2 2s.9 2 2 2 2-.9 2-2-.9-2-2-2z" fill="currentColor" />
  </symbol>
  <symbol id="mouse" viewBox="0 0 24 24">
<ns0:path xmlns:ns0="http://www.w3.org/2000/svg" d="M480-80q-116 0-198-82t-82-198v-240q0-116 82-198t198-82q116 0 198 82t82 198v240q0 116-82 198T480-80Zm40-520h160q0-72-45.5-127T520-796v196Zm-240 0h160v-196q-69 14-114.5 69T280-600Zm200 440q83 0 141.5-58.5T680-360v-160H280v160q0 83 58.5 141.5T480-160Zm0-360Zm40-80Zm-80 0Zm40 80Z" transform="translate(-0.0,24.0) scale(0.025,0.025)" fill="currentColor" />
  </symbol>
  <symbol id="my_location" viewBox="0 0 24 24">
<ns0:path xmlns:ns0="http://www.w3.org/2000/svg" d="M440-42v-80q-125-14-214.5-103.5T122-440H42v-80h80q14-125 103.5-214.5T440-838v-80h80v80q125 14 214.5 103.5T838-520h80v80h-80q-14 125-103.5 214.5T520-122v80h-80Zm40-158q116 0 198-82t82-198q0-116-82-198t-198-82q-116 0-198 82t-82 198q0 116 82 198t198 82Zm0-120q-66 0-113-47t-47-113q0-66 47-113t113-47q66 0 113 47t47 113q0 66-47 113t-113 47Zm0-80q33 0 56.5-23.5T560-480q0-33-23.5-56.5T480-560q-33 0-56.5 23.5T400-480q0 33 23.5 56.5T480-400Zm0-80Z" transform="translate(-0.0,24.0) scale(0.025,0.025)" fill="currentColor" />
  </symbol>
  <symbol id="notifications" viewBox="0 0 24 24">
<ns0:path xmlns:ns0="http://www.w3.org/2000/svg" d="M160-200v-80h80v-280q0-83 50-147.5T420-792v-28q0-25 17.5-42.5T480-880q25 0 42.5 17.5T540-820v28q80 20 130 84.5T720-560v280h80v80H160Zm320-300Zm0 420q-33 0-56.5-23.5T400-160h160q0 33-23.5 56.5T480-80ZM320-280h320v-280q0-66-47-113t-113-47q-66 0-113 47t-47 113v280Z" transform="translate(-0.0,24.0) scale(0.025,0.025)" fill="currentColor" />
  </symbol>
  <symbol id="open_in_full" viewBox="0 0 24 24">
<ns0:path xmlns:ns0="http://www.w3.org/2000/svg" d="M120-120v-320h80v184l504-504H520v-80h320v320h-80v-184L256-200h184v80H120Z" transform="translate(-0.0,24.0) scale(0.025,0.025)" fill="currentColor" />
  </symbol>
  <symbol id="palette" viewBox="0 0 24 24">
<ns0:path xmlns:ns0="http://www.w3.org/2000/svg" d="M480-80q-82 0-155-31.5t-127.5-86Q143-252 111.5-325T80-480q0-83 32.5-156t88-127Q256-817 330-848.5T488-880q80 0 151 27.5t124.5 76q53.5 48.5 85 115T880-518q0 115-70 176.5T640-280h-74q-9 0-12.5 5t-3.5 11q0 12 15 34.5t15 51.5q0 50-27.5 74T480-80Zm0-400Zm-220 40q26 0 43-17t17-43q0-26-17-43t-43-17q-26 0-43 17t-17 43q0 26 17 43t43 17Zm120-160q26 0 43-17t17-43q0-26-17-43t-43-17q-26 0-43 17t-17 43q0 26 17 43t43 17Zm200 0q26 0 43-17t17-43q0-26-17-43t-43-17q-26 0-43 17t-17 43q0 26 17 43t43 17Zm120 160q26 0 43-17t17-43q0-26-17-43t-43-17q-26 0-43 17t-17 43q0 26 17 43t43 17ZM480-160q9 0 14.5-5t5.5-13q0-14-15-33t-15-57q0-42 29-67t71-25h70q66 0 113-38.5T800-518q0-121-92.5-201.5T488-800q-136 0-232 93t-96 227q0 133 93.5 226.5T480-160Z" transform="translate(-0.0,24.0) scale(0.025,0.025)" fill="currentColor" />
  </symbol>
  <symbol id="pause" viewBox="0 0 24 24">
<ns0:path xmlns:ns0="http://www.w3.org/2000/svg" d="M6 19h4V5H6v14zm8-14v14h4V5h-4z" fill="currentColor" />
  </symbol>
  <symbol id="person" viewBox="0 0 24 24">
<ns0:path xmlns:ns0="http://www.w3.org/2000/svg" d="M12 6c1.1 0 2 .9 2 2s-.9 2-2 2-2-.9-2-2 .9-2 2-2m0 10c2.7 0 5.8 1.29 6 2H6c.23-.72 3.31-2 6-2m0-12C9.79 4 8 5.79 8 8s1.79 4 4 4 4-1.79 4-4-1.79-4-4-4zm0 10c-2.67 0-8 1.34-8 4v2h16v-2c0-2.66-5.33-4-8-4z" fill="currentColor" />
  </symbol>
  <symbol id="photo_camera" viewBox="0 0 24 24">
<ns0:path xmlns:ns0="http://www.w3.org/2000/svg" d="M480-260q75 0 127.5-52.5T660-440q0-75-52.5-127.5T480-620q-75 0-127.5 52.5T300-440q0 75 52.5 127.5T480-260Zm0-80q-42 0-71-29t-29-71q0-42 29-71t71-29q42 0 71 29t29 71q0 42-29 71t-71 29ZM160-120q-33 0-56.5-23.5T80-200v-480q0-33 23.5-56.5T160-760h126l74-80h240l74 80h126q33 0 56.5 23.5T880-680v480q0 33-23.5 56.5T800-120H160Zm0-80h640v-480H638l-73-80H395l-73 80H160v480Zm320-240Z" transform="translate(-0.0,24.0) scale(0.025,0.025)" fill="currentColor" />
  </symbol>
  <symbol id="play" viewBox="0 0 24 24">
<ns0:path xmlns:ns0="http://www.w3.org/2000/svg" d="M8 5v14l11-7z" fill="currentColor" />
  </symbol>
  <symbol id="print" viewBox="0 0 24 24">
<ns0:path xmlns:ns0="http://www.w3.org/2000/svg" d="M640-640v-120H320v120h-80v-200h480v200h-80Zm-480 80h640-640Zm560 100q17 0 28.5-11.5T760-500q0-17-11.5-28.5T720-540q-17 0-28.5 11.5T680-500q0 17 11.5 28.5T720-460Zm-80 260v-160H320v160h320Zm80 80H240v-160H80v-240q0-51 35-85.5t85-34.5h560q51 0 85.5 34.5T880-520v240H720v160Zm80-240v-160q0-17-11.5-28.5T760-560H200q-17 0-28.5 11.5T160-520v160h80v-80h480v80h80Z" transform="translate(-0.0,24.0) scale(0.025,0.025)" fill="currentColor" />
  </symbol>
  <symbol id="public" viewBox="0 0 24 24">
<ns0:path xmlns:ns0="http://www.w3.org/2000/svg" d="M480-80q-83 0-156-31.5T197-197q-54-54-85.5-127T80-480q0-83 31.5-156T197-763q54-54 127-85.5T480-880q83 0 156 31.5T763-763q54 54 85.5 127T880-480q0 83-31.5 156T763-197q-54 54-127 85.5T480-80Zm-40-82v-78q-33 0-56.5-23.5T360-320v-40L168-552q-3 18-5.5 36t-2.5 36q0 121 79.5 212T440-162Zm276-102q41-45 62.5-100.5T800-480q0-98-54.5-179T600-776v16q0 33-23.5 56.5T520-680h-80v80q0 17-11.5 28.5T400-560h-80v80h240q17 0 28.5 11.5T600-440v120h40q26 0 47 15.5t29 40.5Z" transform="translate(-0.0,24.0) scale(0.025,0.025)" fill="currentColor" />
  </symbol>
  <symbol id="rainy" viewBox="0 0 24 24">
<ns0:path xmlns:ns0="http://www.w3.org/2000/svg" d="M558-84q-15 8-30.5 2.5T504-102l-60-120q-8-15-2.5-30.5T462-276q15-8 30.5-2.5T516-258l60 120q8 15 2.5 30.5T558-84Zm240 0q-15 8-30.5 2.5T744-102l-60-120q-8-15-2.5-30.5T702-276q15-8 30.5-2.5T756-258l60 120q8 15 2.5 30.5T798-84Zm-480 0q-15 8-30.5 2.5T264-102l-60-120q-8-15-2.5-30.5T222-276q15-8 30.5-2.5T276-258l60 120q8 15 2.5 30.5T318-84Zm-18-236q-91 0-155.5-64.5T80-540q0-83 55-145t136-73q32-57 87.5-89.5T480-880q90 0 156.5 57.5T717-679q69 6 116 57t47 122q0 75-52.5 127.5T700-320H300Zm0-80h400q42 0 71-29t29-71q0-42-29-71t-71-29h-60v-40q0-66-47-113t-113-47q-48 0-87.5 26T333-704l-10 24h-25q-57 2-97.5 42.5T160-540q0 58 41 99t99 41Zm180-200Z" transform="translate(-0.0,24.0) scale(0.025,0.025)" fill="currentColor" />
  </symbol>
  <symbol id="save" viewBox="0 0 24 24">
<ns0:path xmlns:ns0="http://www.w3.org/2000/svg" d="M840-680v480q0 33-23.5 56.5T760-120H200q-33 0-56.5-23.5T120-200v-560q0-33 23.5-56.5T200-840h480l160 160Zm-80 34L646-760H200v560h560v-446ZM480-240q50 0 85-35t35-85q0-50-35-85t-85-35q-50 0-85 35t-35 85q0 50 35 85t85 35ZM240-560h360v-160H240v160Zm-40-86v446-560 114Z" transform="translate(-0.0,24.0) scale(0.025,0.025)" fill="currentColor" />
  </symbol>
  <symbol id="search" viewBox="0 0 24 24">
<ns0:path xmlns:ns0="http://www.w3.org/2000/svg" d="M15.5 14h-.79l-.28-.27C15.41 12.59 16 11.11 16 9.5 16 5.91 13.09 3 9.5 3S3 5.91 3 9.5 5.91 16 9.5 16c1.61 0 3.09-.59 4.23-1.57l.27.28v.79l5 4.99L20.49 19l-4.99-5zm-6 0C7.01 14 5 11.99 5 9.5S7.01 5 9.5 5 14 7.01 14 9.5 11.99 14 9.5 14z" fill="currentColor" />
  </symbol>
  <symbol id="security" viewBox="0 0 24 24">
<ns0:path xmlns:ns0="http://www.w3.org/2000/svg" d="M480-80q-139-35-229.5-159.5T160-516v-244l320-120 320 120v244q0 152-90.5 276.5T480-80Zm0-84q97-30 162-118.5T718-480H480v-315l-240 90v207q0 7 2 18h238v316Z" transform="translate(-0.0,24.0) scale(0.025,0.025)" fill="currentColor" />
  </symbol>
  <symbol id="settings" viewBox="0 0 24 24">
<ns0:path xmlns:ns0="http://www.w3.org/2000/svg" d="M19.43 12.98c.04-.32.07-.64.07-.98 0-.34-.03-.66-.07-.98l2.11-1.65c.19-.15.24-.42.12-.64l-2-3.46c-.09-.16-.26-.25-.44-.25-.06 0-.12.01-.17.03l-2.49 1c-.52-.4-1.08-.73-1.69-.98l-.38-2.65C14.46 2.18 14.25 2 14 2h-4c-.25 0-.46.18-.49.42l-.38 2.65c-.61.25-1.17.59-1.69.98l-2.49-1c-.06-.02-.12-.03-.18-.03-.17 0-.34.09-.43.25l-2 3.46c-.13.22-.07.49.12.64l2.11 1.65c-.04.32-.07.65-.07.98 0 .33.03.66.07.98l-2.11 1.65c-.19.15-.24.42-.12.64l2 3.46c.09.16.26.25.44.25.06 0 .12-.01.17-.03l2.49-1c.52.4 1.08.73 1.69.98l.38 2.65c.03.24.24.42.49.42h4c.25 0 .46-.18.49-.42l.38-2.65c.61-.25 1.17-.59 1.69-.98l2.49 1c.06.02.12.03.18.03.17 0 .34-.09.43-.25l2-3.46c.12-.22.07-.49-.12-.64l-2.11-1.65zm-1.98-1.71c.04.31.05.52.05.73 0 .21-.02.43-.05.73l-.14 1.13.89.7 1.08.84-.7 1.21-1.27-.51-1.04-.42-.9.68c-.43.32-.84.56-1.25.73l-1.06.43-.16 1.13-.2 1.35h-1.4l-.19-1.35-.16-1.13-1.06-.43c-.43-.18-.83-.41-1.23-.71l-.91-.7-1.06.43-1.27.51-.7-1.21 1.08-.84.89-.7-.14-1.13c-.03-.31-.05-.54-.05-.74s.02-.43.05-.73l.14-1.13-.89-.7-1.08-.84.7-1.21 1.27.51 1.04.42.9-.68c.43-.32.84-.56 1.25-.73l1.06-.43.16-1.13.2-1.35h1.39l.19 1.35.16 1.13 1.06.43c.43.18.83.41 1.23.71l.91.7 1.06-.43 1.27-.51.7 1.21-1.07.85-.89.7.14 1.13zM12 8c-2.21 0-4 1.79-4 4s1.79 4 4 4 4-1.79 4-4-1.79-4-4-4zm0 6c-1.1 0-2-.9-2-2s.9-2 2-2 2 .9 2 2-.9 2-2 2z" fill="currentColor" />
  </symbol>
  <symbol id="sign_language" viewBox="0 0 24 24">
<ns0:path xmlns:ns0="http://www.w3.org/2000/svg" d="m605-729-48-137q-5-16 2-31t23-20q16-5 31 1.5t20 22.5l89 251 78-69q12-11 27.5-15t32.5-2q17 2 30 11.5t21 23.5l9 16-89 276q-6 20-20 35t-31 26v-128q0-7-.5-13.5T778-495l40-125-65 57q-5-7-10-13.5T733-589L605-729Zm-211-59-30-51q-8-14-3.5-30.5T379-894q14-8 30.5-3.5T434-879l35 60q-21 2-39 8t-36 23Zm-41 143-60-11-46-66q-9-14-6.5-29.5T257-777q14-10 30.5-7t26.5 17l36 54q-2 13-2 26t2 26l3 16Zm267 537L206-40q-17 3-30-6.5T160-73q-3-17 6.5-29.5T193-118l413-69q14-2 24-13.5t10-26.5v-256L496-642l34 173-378-71q-17-3-26-16.5t-6-30.5q3-17 16.5-26t30.5-6l262 49-21-103q-3-17 1-32t15-28q11-13 25-20.5t31-6.5l18 1 191 211q15 17 23 37t8 43v242q0 45-28 77.5T620-108ZM360-220l-237 20q-17 2-29-9t-14-28q-2-17 9-29t28-14l243-20v80Zm0-141-281-9q-17-1-28.5-13T40-412q1-17 12.5-28T81-450l279 9v80Zm140-33Z" transform="translate(-0.0,24.0) scale(0.025,0.025)" fill="currentColor" />
  </symbol>
  <symbol id="smart_display" viewBox="0 0 24 24">
<ns0:path xmlns:ns0="http://www.w3.org/2000/svg" d="m380-300 280-180-280-180v360ZM160-160q-33 0-56.5-23.5T80-240v-480q0-33 23.5-56.5T160-800h640q33 0 56.5 23.5T880-720v480q0 33-23.5 56.5T800-160H160Zm0-80h640v-480H160v480Zm0 0v-480 480Z" transform="translate(-0.0,24.0) scale(0.025,0.025)" fill="currentColor" />
  </symbol>
  <symbol id="sort" viewBox="0 0 24 24">
<ns0:path xmlns:ns0="http://www.w3.org/2000/svg" d="M120-240v-80h240v80H120Zm0-200v-80h480v80H120Zm0-200v-80h720v80H120Z" transform="translate(-0.0,24.0) scale(0.025,0.025)" fill="currentColor" />
  </symbol>
  <symbol id="speaker" viewBox="0 0 24 24">
<ns0:path xmlns:ns0="http://www.w3.org/2000/svg" d="M680-80H280q-33 0-56.5-23.5T200-160v-640q0-33 23.5-56.5T280-880h400q33 0 56.5 23.5T760-800v640q0 33-23.5 56.5T680-80Zm0-80v-640H280v640h400ZM480-600q33 0 56.5-23.5T560-680q0-33-23.5-56.5T480-760q-33 0-56.5 23.5T400-680q0 33 23.5 56.5T480-600Zm0 400q66 0 113-47t47-113q0-66-47-113t-113-47q-66 0-113 47t-47 113q0 66 47 113t113 47Zm0-80q-33 0-56.5-23.5T400-360q0-33 23.5-56.5T480-440q33 0 56.5 23.5T560-360q0 33-23.5 56.5T480-280ZM280-800v640-640Z" transform="translate(-0.0,24.0) scale(0.025,0.025)" fill="currentColor" />
  </symbol>
  <symbol id="stadia_controller" viewBox="0 0 24 24">
<ns0:path xmlns:ns0="http://www.w3.org/2000/svg" d="M189-160q-60 0-102.5-43T42-307q0-9 1-18t3-18l84-336q14-54 57-87.5t98-33.5h390q55 0 98 33.5t57 87.5l84 336q2 9 3.5 18.5T919-306q0 61-43.5 103.5T771-160q-42 0-78-22t-54-60l-28-58q-5-10-15-15t-21-5H385q-11 0-21 5t-15 15l-28 58q-18 38-54 60t-78 22Zm3-80q19 0 34.5-10t23.5-27l28-57q15-31 44-48.5t63-17.5h190q34 0 63 18t45 48l28 57q8 17 23.5 27t34.5 10q28 0 48-18.5t21-46.5q0 1-2-19l-84-335q-7-27-28-44t-49-17H285q-28 0-49.5 17T208-659l-84 335q-2 6-2 18 0 28 20.5 47t49.5 19Zm348-280q17 0 28.5-11.5T580-560q0-17-11.5-28.5T540-600q-17 0-28.5 11.5T500-560q0 17 11.5 28.5T540-520Zm80-80q17 0 28.5-11.5T660-640q0-17-11.5-28.5T620-680q-17 0-28.5 11.5T580-640q0 17 11.5 28.5T620-600Zm0 160q17 0 28.5-11.5T660-480q0-17-11.5-28.5T620-520q-17 0-28.5 11.5T580-480q0 17 11.5 28.5T620-440Zm80-80q17 0 28.5-11.5T740-560q0-17-11.5-28.5T700-600q-17 0-28.5 11.5T660-560q0 17 11.5 28.5T700-520Zm-360 60q13 0 21.5-8.5T370-490v-40h40q13 0 21.5-8.5T440-560q0-13-8.5-21.5T410-590h-40v-40q0-13-8.5-21.5T340-660q-13 0-21.5 8.5T310-630v40h-40q-13 0-21.5 8.5T240-560q0 13 8.5 21.5T270-530h40v40q0 13 8.5 21.5T340-460Zm140-20Z" transform="translate(-0.0,24.0) scale(0.025,0.025)" fill="currentColor" />
  </symbol>
  <symbol id="star_rate" viewBox="0 0 24 24">
<ns0:path xmlns:ns0="http://www.w3.org/2000/svg" d="m384-334 96-74 96 74-36-122 90-64H518l-38-124-38 124H330l90 64-36 122ZM233-120l93-304L80-600h304l96-320 96 320h304L634-424l93 304-247-188-247 188Zm247-369Z" transform="translate(-0.0,24.0) scale(0.025,0.025)" fill="currentColor" />
  </symbol>
  <symbol id="sticky_note" viewBox="0 0 24 24">
<ns0:path xmlns:ns0="http://www.w3.org/2000/svg" d="M19,5v9l-5,0l0,5H5V5H19 M19,3H5C3.9,3,3,3.9,3,5v14c0,1.1,0.9,2,2,2h10l6-6V5C21,3.9,20.1,3,19,3z M12,14H7v-2h5V14z M17,10H7V8h10V10z" fill="currentColor" />
  </symbol>
  <symbol id="sync" viewBox="0 0 24 24">
<ns0:path xmlns:ns0="http://www.w3.org/2000/svg" d="M12 4V1L8 5l4 4V6c3.31 0 6 2.69 6 6 0 1.01-.25 1.97-.7 2.8l1.46 1.46C19.54 15.03 20 13.57 20 12c0-4.42-3.58-8-8-8zm0 14c-3.31 0-6-2.69-6-6 0-1.01.25-1.97.7-2.8L5.24 7.74C4.46 8.97 4 10.43 4 12c0 4.42 3.58 8 8 8v3l4-4-4-4v3z" fill="currentColor" />
  </symbol>
  <symbol id="upload" viewBox="0 0 24 24">
<ns0:path xmlns:ns0="http://www.w3.org/2000/svg" d="M18,15v3H6v-3H4v3c0,1.1,0.9,2,2,2h12c1.1,0,2-0.9,2-2v-3H18z M7,9l1.41,1.41L11,7.83V16h2V7.83l2.59,2.58L17,9l-5-5L7,9z" fill="currentColor" />
  </symbol>
  <symbol id="volume" viewBox="0 0 24 24">
<ns0:path xmlns:ns0="http://www.w3.org/2000/svg" d="M3 9v6h4l5 5V4L7 9H3zm13.5 3c0-1.77-1.02-3.29-2.5-4.03v8.05c1.48-.73 2.5-2.25 2.5-4.02zM14 3.23v2.06c2.89.86 5 3.54 5 6.71s-2.11 5.85-5 6.71v2.06c4.01-.91 7-4.49 7-8.77s-2.99-7.86-7-8.77z" fill="currentColor" />
  </symbol>
  <symbol id="warning" viewBox="0 0 24 24">
<ns0:path xmlns:ns0="http://www.w3.org/2000/svg" d="M1 21h22L12 2 1 21zm12-3h-2v-2h2v2zm0-4h-2v-4h2v4z" fill="currentColor" />
  </symbol>
  <symbol id="work" viewBox="0 0 24 24">
<ns0:path xmlns:ns0="http://www.w3.org/2000/svg" d="M160-120q-33 0-56.5-23.5T80-200v-440q0-33 23.5-56.5T160-720h160v-80q0-33 23.5-56.5T400-880h160q33 0 56.5 23.5T640-800v80h160q33 0 56.5 23.5T880-640v440q0 33-23.5 56.5T800-120H160Zm0-80h640v-440H160v440Zm240-520h160v-80H400v80ZM160-200v-440 440Z" transform="translate(-0.0,24.0) scale(0.025,0.025)" fill="currentColor" />
  </symbol>
  <symbol id="wysiwyg" viewBox="0 0 24 24">
<ns0:path xmlns:ns0="http://www.w3.org/2000/svg" d="M19,3H5C3.89,3,3,3.9,3,5v14c0,1.1,0.89,2,2,2h14c1.1,0,2-0.9,2-2V5C21,3.9,20.11,3,19,3z M19,19H5V7h14V19z M17,12H7v-2 h10V12z M13,16H7v-2h6V16z" fill="currentColor" />
  </symbol>
</svg>