<svg xmlns="http://www.w3.org/2000/svg" height="24px" viewBox="0 -960 960 960" width="24px" fill="#000"><path d="m605-729-48-137q-5-16 2-31t23-20q16-5 31 1.5t20 22.5l89 251 78-69q12-11 27.5-15t32.5-2q17 2 30 11.5t21 23.5l9 16-89 276q-6 20-20 35t-31 26v-128q0-7-.5-13.5T778-495l40-125-65 57q-5-7-10-13.5T733-589L605-729Zm-211-59-30-51q-8-14-3.5-30.5T379-894q14-8 30.5-3.5T434-879l35 60q-21 2-39 8t-36 23Zm-41 143-60-11-46-66q-9-14-6.5-29.5T257-777q14-10 30.5-7t26.5 17l36 54q-2 13-2 26t2 26l3 16Zm267 537L206-40q-17 3-30-6.5T160-73q-3-17 6.5-29.5T193-118l413-69q14-2 24-13.5t10-26.5v-256L496-642l34 173-378-71q-17-3-26-16.5t-6-30.5q3-17 16.5-26t30.5-6l262 49-21-103q-3-17 1-32t15-28q11-13 25-20.5t31-6.5l18 1 191 211q15 17 23 37t8 43v242q0 45-28 77.5T620-108ZM360-220l-237 20q-17 2-29-9t-14-28q-2-17 9-29t28-14l243-20v80Zm0-141-281-9q-17-1-28.5-13T40-412q1-17 12.5-28T81-450l279 9v80Zm140-33Z"/></svg>